<svg width="910" height="844" viewBox="0 0 910 844" fill="none" xmlns="http://www.w3.org/2000/svg">
    <path fill-rule="evenodd" clip-rule="evenodd"
          d="M654.399 810.667L756.25 757.775C966.775 648.451 926.236 421.121 834.391 243.307C760.899 101.018 586.155 45.3216 444.146 119.066L273.997 207.428C273.861 207.51 273.671 207.51 273.535 207.428L103.576 113.594C103.548 113.567 103.494 113.54 103.494 113.54C82.3952 94.8928 51.1549 92.47 27.2557 108.449C0.528817 126.307 -7.43759 162.185 7.35328 190.741L264.399 686.916C337.946 828.906 512.581 884.33 654.399 810.667ZM328.449 470.075C328.449 547.659 391.354 610.564 468.938 610.564H468.965H603.572C621.654 610.564 636.305 595.914 636.305 577.832V458.12C636.305 372.286 566.728 302.708 480.893 302.708C396.692 302.708 328.449 370.951 328.449 455.152V470.075Z"
          fill="url(#paint0_linear_3119_12770)"/>
    <path d="M581.073 801.29L474.948 813.637C328.058 830.715 195.075 725.796 177.951 579.296L117.772 64.5177C114.063 32.8081 136.832 4.08997 168.626 0.391418C192.43 -2.38249 215.526 9.77377 226.651 30.9316L332.176 154.751C339.184 162.964 349.845 167.152 360.589 165.901L520.621 147.3C667.511 130.221 800.495 235.14 817.619 381.641L829.998 487.485C848.131 642.688 736.716 783.178 581.1 801.263L581.073 801.29Z"
          fill="url(#paint1_linear_3119_12770)"/>
    <path d="M468.937 610.564C391.354 610.564 328.448 547.659 328.448 470.075V455.152C328.448 370.951 396.691 302.708 480.892 302.708C566.727 302.708 636.304 372.286 636.304 458.12V577.832C636.304 595.914 621.654 610.564 603.572 610.564H468.965H468.937Z"
          fill="white"/>
    <path d="M446.633 400.286C448.766 391.49 461.276 391.49 463.409 400.286L469.278 424.489C470.039 427.629 472.491 430.081 475.632 430.843L499.835 436.712C508.631 438.845 508.631 451.355 499.835 453.488L475.632 459.357C472.491 460.118 470.039 462.57 469.278 465.711L463.409 489.913C461.276 498.71 448.766 498.71 446.633 489.913L440.764 465.711C440.003 462.57 437.551 460.118 434.41 459.357L410.207 453.488C401.411 451.355 401.411 438.845 410.207 436.712L434.41 430.843C437.551 430.081 440.003 427.629 440.764 424.489L446.633 400.286Z"
          fill="url(#paint2_linear_3119_12770)"/>
    <path d="M517.089 484.752C518.401 479.339 526.1 479.339 527.412 484.752L531.024 499.646C531.493 501.578 533.002 503.087 534.934 503.556L549.828 507.167C555.241 508.48 555.241 516.178 549.828 517.491L534.934 521.103C533.002 521.571 531.493 523.08 531.024 525.013L527.412 539.907C526.1 545.32 518.401 545.32 517.089 539.907L513.477 525.013C513.009 523.08 511.5 521.571 509.567 521.103L494.673 517.491C489.26 516.178 489.26 508.48 494.673 507.167L509.567 503.556C511.5 503.087 513.009 501.578 513.477 499.646L517.089 484.752Z"
          fill="url(#paint3_linear_3119_12770)"/>
    <path d="M542.591 399.319C543.453 395.767 548.505 395.767 549.366 399.319L551.736 409.093C552.044 410.362 553.034 411.352 554.302 411.659L564.076 414.03C567.629 414.891 567.629 419.943 564.076 420.804L554.302 423.175C553.034 423.482 552.044 424.472 551.736 425.741L549.366 435.515C548.505 439.067 543.453 439.067 542.591 435.515L540.221 425.741C539.914 424.472 538.923 423.482 537.655 423.175L527.881 420.804C524.329 419.943 524.329 414.891 527.881 414.03L537.655 411.66C538.923 411.352 539.914 410.362 540.221 409.093L542.591 399.319Z"
          fill="url(#paint4_linear_3119_12770)"/>
    <path fill-rule="evenodd" clip-rule="evenodd"
          d="M545.979 401.053L544.044 409.031C543.271 412.22 540.781 414.709 537.592 415.483L529.615 417.417L537.592 419.351C540.781 420.125 543.271 422.614 544.044 425.803L545.979 433.781L547.913 425.803C548.686 422.614 551.176 420.125 554.365 419.351L562.342 417.417L554.365 415.483C551.176 414.709 548.686 412.22 547.913 409.031L545.979 401.053ZM549.85 396.734C548.866 392.674 543.092 392.674 542.107 396.734L539.399 407.904C539.047 409.354 537.915 410.486 536.466 410.837L525.295 413.546C521.236 414.53 521.236 420.304 525.295 421.288L536.466 423.997C537.915 424.349 539.047 425.48 539.399 426.93L542.107 438.1C543.092 442.16 548.866 442.16 549.85 438.1L552.559 426.93C552.91 425.48 554.042 424.349 555.491 423.997L566.662 421.288C570.722 420.304 570.722 414.53 566.662 413.546L555.491 410.837C554.042 410.486 552.91 409.354 552.559 407.904L549.85 396.734Z"
          fill="url(#paint5_linear_3119_12770)"/>
    <path d="M451.066 551.876C446.698 551.876 443.157 548.335 443.157 543.967C443.157 539.598 446.698 536.057 451.066 536.057C455.435 536.057 458.976 539.598 458.976 543.967C458.976 548.335 455.435 551.876 451.066 551.876Z"
          fill="url(#paint6_linear_3119_12770)"/>
    <path d="M411.52 520.239C407.151 520.239 403.61 516.697 403.61 512.329C403.61 507.961 407.151 504.42 411.52 504.42C415.888 504.42 419.429 507.961 419.429 512.329C419.429 516.697 415.888 520.239 411.52 520.239Z"
          fill="url(#paint7_linear_3119_12770)"/>
    <path d="M498.523 393.689C494.154 393.689 490.613 390.148 490.613 385.78C490.613 381.411 494.154 377.87 498.523 377.87C502.891 377.87 506.432 381.411 506.432 385.78C506.432 390.148 502.891 393.689 498.523 393.689Z"
          fill="url(#paint8_linear_3119_12770)"/>
    <path d="M569.707 480.692C565.338 480.692 561.797 477.151 561.797 472.782C561.797 468.414 565.338 464.873 569.707 464.873C574.075 464.873 577.616 468.414 577.616 472.782C577.616 477.151 574.075 480.692 569.707 480.692Z"
          fill="url(#paint9_linear_3119_12770)"/>
    <defs>
        <linearGradient id="paint0_linear_3119_12770" x1="7.17248e-06" y1="173.602" x2="360.487" y2="1016.02"
                        gradientUnits="userSpaceOnUse">
            <stop offset="0.27" stop-color="#FD3DD3"/>
            <stop offset="1" stop-color="#FEB248"/>
        </linearGradient>
        <linearGradient id="paint1_linear_3119_12770" x1="474.654" y1="0" x2="474.654" y2="815.459"
                        gradientUnits="userSpaceOnUse">
            <stop stop-color="#4A3AFF"/>
            <stop offset="1" stop-color="#6D3AFF"/>
        </linearGradient>
        <linearGradient id="paint2_linear_3119_12770" x1="490.613" y1="377.87" x2="490.613" y2="551.876"
                        gradientUnits="userSpaceOnUse">
            <stop stop-color="#4A3AFF"/>
            <stop offset="1" stop-color="#6D3AFF"/>
        </linearGradient>
        <linearGradient id="paint3_linear_3119_12770" x1="490.613" y1="377.87" x2="490.613" y2="551.876"
                        gradientUnits="userSpaceOnUse">
            <stop stop-color="#4A3AFF"/>
            <stop offset="1" stop-color="#6D3AFF"/>
        </linearGradient>
        <linearGradient id="paint4_linear_3119_12770" x1="490.613" y1="377.87" x2="490.613" y2="551.876"
                        gradientUnits="userSpaceOnUse">
            <stop stop-color="#4A3AFF"/>
            <stop offset="1" stop-color="#6D3AFF"/>
        </linearGradient>
        <linearGradient id="paint5_linear_3119_12770" x1="490.613" y1="377.87" x2="490.613" y2="551.876"
                        gradientUnits="userSpaceOnUse">
            <stop stop-color="#4A3AFF"/>
            <stop offset="1" stop-color="#6D3AFF"/>
        </linearGradient>
        <linearGradient id="paint6_linear_3119_12770" x1="490.613" y1="377.87" x2="490.613" y2="551.876"
                        gradientUnits="userSpaceOnUse">
            <stop stop-color="#4A3AFF"/>
            <stop offset="1" stop-color="#6D3AFF"/>
        </linearGradient>
        <linearGradient id="paint7_linear_3119_12770" x1="490.613" y1="377.87" x2="490.613" y2="551.876"
                        gradientUnits="userSpaceOnUse">
            <stop stop-color="#4A3AFF"/>
            <stop offset="1" stop-color="#6D3AFF"/>
        </linearGradient>
        <linearGradient id="paint8_linear_3119_12770" x1="490.613" y1="377.87" x2="490.613" y2="551.876"
                        gradientUnits="userSpaceOnUse">
            <stop stop-color="#4A3AFF"/>
            <stop offset="1" stop-color="#6D3AFF"/>
        </linearGradient>
        <linearGradient id="paint9_linear_3119_12770" x1="490.613" y1="377.87" x2="490.613" y2="551.876"
                        gradientUnits="userSpaceOnUse">
            <stop stop-color="#4A3AFF"/>
            <stop offset="1" stop-color="#6D3AFF"/>
        </linearGradient>
    </defs>
</svg>
